<mxfile host="app.diagrams.net" modified="2024-07-25T03:12:53.999Z" agent="Mozilla/5.0 (Macintosh; Intel Mac OS X 10_15_7) AppleWebKit/537.36 (KHTML, like Gecko) Chrome/126.0.0.0 Safari/537.36" version="24.6.4" etag="4-KN-Z0m6T-bWgzGw2ZP" type="github">
  <diagram name="第 1 页" id="IdjtdJR9vfbX076qxo_v">
    <mxGraphModel>
      <root>
        <mxCell id="0" />
        <mxCell id="1" parent="0" />
      </root>
    </mxGraphModel>
  </diagram>
</mxfile>
